<svg fill="#ffffff" version="1.1" xmlns="http://www.w3.org/2000/svg" xmlns:xlink="http://www.w3.org/1999/xlink" viewBox="0 0 512 512" xml:space="preserve" stroke="#ffffff"><g  stroke-width="0"></g><g  stroke-linecap="round" stroke-linejoin="round"></g><g > <g> <g> <path d="M385.204,0H129.167c-26.13,0-48.574,20.903-48.574,47.009V464.31c0,26.111,22.445,47.69,48.574,47.69h256.037 c26.13,0,46.204-21.579,46.204-47.69V47.009C431.407,20.903,411.333,0,385.204,0z M412.444,464.31 c0,15.653-11.565,28.727-27.241,28.727H129.167c-15.676,0-29.611-13.074-29.611-28.727V47.009 c0-15.653,13.935-28.046,29.611-28.046h256.037c15.676,0,27.241,12.393,27.241,28.046V464.31z"></path> </g> </g> <g> <g> <path d="M337.75,47.407H176.62c-26.157,0-48.62,20.954-48.62,47.125v104.18c0,26.176,22.463,47.806,48.62,47.806h161.13 c26.157,0,46.25-21.63,46.25-47.806V94.533C384,68.361,363.907,47.407,337.75,47.407z M365.037,198.713 c0,15.718-11.583,28.843-27.287,28.843H176.62c-15.704,0-29.657-13.125-29.657-28.843V94.533 c0-15.713,13.954-28.162,29.657-28.162h161.13c15.704,0,27.287,12.449,27.287,28.162V198.713z"></path> </g> </g> <g> <g> <path d="M257.185,284.106c-49.667,0-90.074,40.407-90.074,90.074c0,49.667,40.407,90.074,90.074,90.074 s90.074-40.407,90.074-90.074C347.259,324.514,306.852,284.106,257.185,284.106z M257.185,445.292 c-39.213,0-71.111-31.898-71.111-71.111c0-39.213,31.898-71.111,71.111-71.111s71.111,31.898,71.111,71.111 C328.296,413.394,296.398,445.292,257.185,445.292z"></path> </g> </g> <g> <g> <path d="M257.185,331.514c-23.528,0-42.667,19.139-42.667,42.667c0,23.528,19.139,42.667,42.667,42.667 s42.667-19.139,42.667-42.667C299.852,350.653,280.713,331.514,257.185,331.514z M257.185,397.884 c-13.074,0-23.704-10.634-23.704-23.704s10.63-23.704,23.704-23.704s23.704,10.634,23.704,23.704 C280.889,387.25,270.259,397.884,257.185,397.884z"></path> </g> </g> </g></svg>